<svg width="25" height="25" viewBox="0 0 25 25" fill="none" xmlns="http://www.w3.org/2000/svg">
<path d="M12.8454 5.87923V5.88923M12.8454 12.8792V12.8892M12.8454 19.8792V19.8892M12.8454 6.87923C12.5802 6.87923 12.3258 6.77387 12.1383 6.58633C11.9508 6.3988 11.8454 6.14444 11.8454 5.87923C11.8454 5.61401 11.9508 5.35966 12.1383 5.17212C12.3258 4.98458 12.5802 4.87923 12.8454 4.87923C13.1106 4.87923 13.365 4.98458 13.5525 5.17212C13.74 5.35966 13.8454 5.61401 13.8454 5.87923C13.8454 6.14444 13.74 6.3988 13.5525 6.58633C13.365 6.77387 13.1106 6.87923 12.8454 6.87923ZM12.8454 13.8792C12.5802 13.8792 12.3258 13.7739 12.1383 13.5863C11.9508 13.3988 11.8454 13.1444 11.8454 12.8792C11.8454 12.614 11.9508 12.3597 12.1383 12.1721C12.3258 11.9846 12.5802 11.8792 12.8454 11.8792C13.1106 11.8792 13.365 11.9846 13.5525 12.1721C13.74 12.3597 13.8454 12.614 13.8454 12.8792C13.8454 13.1444 13.74 13.3988 13.5525 13.5863C13.365 13.7739 13.1106 13.8792 12.8454 13.8792ZM12.8454 20.8792C12.5802 20.8792 12.3258 20.7739 12.1383 20.5863C11.9508 20.3988 11.8454 20.1444 11.8454 19.8792C11.8454 19.614 11.9508 19.3597 12.1383 19.1721C12.3258 18.9846 12.5802 18.8792 12.8454 18.8792C13.1106 18.8792 13.365 18.9846 13.5525 19.1721C13.74 19.3597 13.8454 19.614 13.8454 19.8792C13.8454 20.1444 13.74 20.3988 13.5525 20.5863C13.365 20.7739 13.1106 20.8792 12.8454 20.8792Z" stroke="black" stroke-width="2" stroke-linecap="round" stroke-linejoin="round"/>
</svg>
